<svg width="38" height="38" viewBox="0 0 38 38" fill="none" xmlns="http://www.w3.org/2000/svg">
<path d="M38 19C38 29.4933 29.4933 38 19 38C8.50672 38 0 29.4933 0 19C0 8.50672 8.50672 0 19 0C29.4933 0 38 8.50672 38 19Z" fill="#FFCD00"/>
<path d="M21.1122 13.7222C21.0541 13.7222 20.9971 13.718 20.938 13.7075C20.3627 13.6114 19.9743 13.0678 20.0703 12.4925C20.4852 9.99719 22.7831 5.2778 28.5 5.2778C29.0837 5.2778 29.5556 5.75069 29.5556 6.33336C29.5556 6.91602 29.0837 7.38891 28.5 7.38891C23.1219 7.38891 22.1888 12.6181 22.1519 12.8409C22.0664 13.356 21.6188 13.7222 21.1122 13.7222ZM16.8878 13.7222C16.3822 13.7222 15.9357 13.3581 15.8481 12.843C15.8091 12.6213 14.8401 7.38891 9.5 7.38891C8.91733 7.38891 8.44444 6.91602 8.44444 6.33336C8.44444 5.75069 8.91733 5.2778 9.5 5.2778C15.2169 5.2778 17.5138 9.99719 17.9297 12.4925C18.0257 13.0678 17.6373 13.6114 17.062 13.7075C17.0039 13.718 16.9448 13.7222 16.8878 13.7222ZM12.0439 18.886C9.57916 18.886 7.95889 17.8336 7.85966 17.7671C7.37516 17.4441 7.24427 16.7886 7.56727 16.3031C7.89027 15.8175 8.54472 15.6856 9.03133 16.0107C9.13583 16.0782 11.7779 17.7376 15.3626 15.9452C15.8851 15.6845 16.5184 15.8967 16.7791 16.4171C17.0398 16.9385 16.8287 17.5729 16.3073 17.8336C14.7292 18.6211 13.2799 18.886 12.0439 18.886ZM25.9572 18.886C24.7201 18.886 23.2708 18.6211 21.6948 17.8326C21.1734 17.5719 20.9623 16.9375 21.223 16.416C21.4848 15.8946 22.1181 15.6835 22.6396 15.9442C26.2284 17.7386 28.8663 16.0772 28.9771 16.0065C29.4627 15.6919 30.1182 15.827 30.4359 16.3115C30.7547 16.796 30.6248 17.4452 30.1424 17.7671C30.0411 17.8336 28.4208 18.886 25.9572 18.886ZM27.4455 28.5C27.1236 28.5 26.8079 28.3544 26.6 28.0778C26.5736 28.0419 23.6634 24.2778 19 24.2778C14.3376 24.2778 11.4274 28.0419 11.3979 28.081C11.0464 28.5433 10.3835 28.6351 9.92011 28.2857C9.45566 27.9353 9.36172 27.2766 9.71111 26.8111C9.85361 26.6211 13.2599 22.1667 19 22.1667C24.7401 22.1667 28.1464 26.6222 28.2889 26.8111C28.6393 27.2766 28.5443 27.9385 28.0778 28.2879C27.8878 28.4314 27.6661 28.5 27.4455 28.5Z" fill="#333333"/>
<path d="M16.2461 21.1956C15.7679 20.9898 15.2127 21.1671 14.9382 21.6073L9.66046 30.0517C9.45779 30.3779 9.44618 30.7874 9.63301 31.1231C9.81879 31.4588 10.1713 31.6667 10.5556 31.6667H13.7222C14.2067 31.6667 14.629 31.3374 14.7461 30.8666L16.8572 22.4221C16.9828 21.9197 16.7242 21.3983 16.2461 21.1956ZM28.3396 30.0517L23.0618 21.6073C22.7852 21.166 22.2311 20.9908 21.755 21.1956C21.2768 21.3983 21.0172 21.9197 21.1438 22.4221L23.255 30.8666C23.3721 31.3374 23.7933 31.6667 24.2778 31.6667H27.4445C27.8276 31.6667 28.1812 31.4588 28.3681 31.122C28.5538 30.7874 28.5433 30.3768 28.3396 30.0517Z" fill="#F5F8FA"/>
<path d="M33.7589 31.8546C33.762 31.7912 33.7779 31.7311 33.7779 31.6667C33.7779 29.9187 32.3592 28.5 30.6112 28.5C29.5272 28.5 28.5719 29.0468 28.0008 29.8775C27.5047 29.6717 26.96 29.5556 26.389 29.5556C24.0573 29.5556 22.1668 31.4461 22.1668 33.7778C22.1668 36.1095 24.0573 38 26.389 38C27.8298 38 29.0997 37.2748 29.8618 36.1728C30.3684 37.2495 31.4535 38 32.7223 38C34.4714 38 35.889 36.5824 35.889 34.8333C35.889 33.4484 34.996 32.2852 33.7589 31.8546ZM11.6112 29.5556C11.0391 29.5556 10.4965 29.6717 9.99937 29.8775C9.42832 29.0468 8.47304 28.5 7.38898 28.5C5.64098 28.5 4.22232 29.9187 4.22232 31.6667C4.22232 31.7311 4.2371 31.7912 4.24132 31.8546C3.00421 32.2852 2.11121 33.4484 2.11121 34.8333C2.11121 36.5824 3.52882 38 5.27787 38C6.54665 38 7.63282 37.2495 8.13737 36.1728C8.90054 37.2748 10.1693 38 11.6112 38C13.9429 38 15.8334 36.1095 15.8334 33.7778C15.8334 31.4461 13.9429 29.5556 11.6112 29.5556Z" fill="#BDC5CA"/>
</svg>
