<svg width="38" height="38" viewBox="0 0 38 38" fill="none" xmlns="http://www.w3.org/2000/svg">
<path d="M38 19C38 29.4933 29.4933 38 19 38C8.50778 38 0 29.4933 0 19C0 8.50778 8.50778 0 19 0C29.4933 0 38 8.50778 38 19Z" fill="#FFCD00"/>
<path d="M12.1389 21.1111C13.5963 21.1111 14.7778 19.457 14.7778 17.4166C14.7778 15.3763 13.5963 13.7222 12.1389 13.7222C10.6815 13.7222 9.5 15.3763 9.5 17.4166C9.5 19.457 10.6815 21.1111 12.1389 21.1111Z" fill="#333333"/>
<path d="M25.8611 21.1111C27.3185 21.1111 28.5 19.457 28.5 17.4166C28.5 15.3763 27.3185 13.7222 25.8611 13.7222C24.4037 13.7222 23.2222 15.3763 23.2222 17.4166C23.2222 19.457 24.4037 21.1111 25.8611 21.1111Z" fill="#333333"/>
<path d="M24.7898 29.4279C24.7782 29.3814 23.5811 24.8056 19 24.8056C14.4189 24.8056 13.2219 29.3814 13.2103 29.4279C13.1544 29.6527 13.2568 29.8828 13.4552 30.0021C13.6537 30.1203 13.9123 30.0929 14.0843 29.9388C14.0938 29.9314 15.1536 29.0278 19 29.0278C22.7895 29.0278 23.8735 29.9039 23.9147 29.9388C24.015 30.0348 24.1459 30.0834 24.2778 30.0834C24.3665 30.0834 24.4562 30.0612 24.5375 30.0158C24.7444 29.8986 24.8478 29.658 24.7898 29.4279Z" fill="#333333"/>
<path d="M10.5556 31.6667C10.5556 34.5821 8.19322 36.9444 5.27778 36.9444C2.36233 36.9444 0 34.5821 0 31.6667C0 28.7512 4.22222 21.1111 5.27778 21.1111C6.33333 21.1111 10.5556 28.7512 10.5556 31.6667Z" fill="#D8E0E5"/>
<path d="M31.6667 13.7222C25.8041 13.7222 23.4312 9.11257 23.333 8.91624C23.0723 8.39479 23.2834 7.76041 23.8049 7.49968C24.3242 7.23896 24.9576 7.44902 25.2193 7.96729C25.2985 8.12141 27.1415 11.6111 31.6667 11.6111C32.2504 11.6111 32.7222 12.084 32.7222 12.6666C32.7222 13.2503 32.2504 13.7222 31.6667 13.7222ZM6.33333 13.7222C5.75066 13.7222 5.27777 13.2493 5.27777 12.6666C5.27777 12.084 5.75066 11.6111 6.33333 11.6111C11.6987 11.6111 12.6624 8.31774 12.7015 8.17735C12.8545 7.62002 13.4298 7.28224 13.9882 7.42896C14.5477 7.57568 14.8865 8.13935 14.7461 8.70091C14.6944 8.90568 13.4098 13.7222 6.33333 13.7222Z" fill="#333333"/>
</svg>
