<svg width="38" height="38" viewBox="0 0 38 38" fill="none" xmlns="http://www.w3.org/2000/svg">
<path d="M19 38C29.4934 38 38 29.4934 38 19C38 8.50659 29.4934 0 19 0C8.50659 0 0 8.50659 0 19C0 29.4934 8.50659 38 19 38Z" fill="#FFCD00"/>
<path d="M11.0993 24.9333C11.1468 25.1222 12.3321 29.5556 19.0001 29.5556C25.6691 29.5556 26.8534 25.1222 26.9009 24.9333C26.959 24.7042 26.8555 24.4667 26.6508 24.3485C26.4449 24.2313 26.1874 24.2662 26.0174 24.4298C25.9974 24.4498 23.9549 26.3889 19.0001 26.3889C14.0453 26.3889 12.0018 24.4498 11.9828 24.4308C11.8814 24.3306 11.7463 24.2778 11.6112 24.2778C11.5225 24.2778 11.4328 24.3 11.3515 24.3453C11.1446 24.4636 11.0412 24.7032 11.0993 24.9333Z" fill="#333333"/>
<path d="M12.6667 17.9444C14.1241 17.9444 15.3056 16.2904 15.3056 14.25C15.3056 12.2096 14.1241 10.5555 12.6667 10.5555C11.2093 10.5555 10.0278 12.2096 10.0278 14.25C10.0278 16.2904 11.2093 17.9444 12.6667 17.9444Z" fill="#333333"/>
<path d="M25.3333 17.9444C26.7907 17.9444 27.9722 16.2904 27.9722 14.25C27.9722 12.2096 26.7907 10.5555 25.3333 10.5555C23.8759 10.5555 22.6944 12.2096 22.6944 14.25C22.6944 16.2904 23.8759 17.9444 25.3333 17.9444Z" fill="#333333"/>
</svg>
