<svg width="38" height="38" viewBox="0 0 38 38" fill="none" xmlns="http://www.w3.org/2000/svg">
<path d="M38 19C38 29.4933 29.4933 38 19 38C8.50672 38 0 29.4933 0 19C0 8.50672 8.50672 0 19 0C29.4933 0 38 8.50672 38 19Z" fill="#FFCD00"/>
<path d="M19 23.0628C15.8692 23.0628 13.7908 22.6976 11.2216 22.1983C10.6337 22.0865 9.49261 22.1983 9.49261 23.9273C9.49261 27.3843 13.4647 31.7057 19 31.7057C24.5353 31.7057 28.5074 27.3843 28.5074 23.9273C28.5074 22.1983 27.3653 22.0854 26.7784 22.1983C24.2092 22.6976 22.1318 23.0628 19 23.0628Z" fill="#333333"/>
<path d="M17.575 3.4633C16.6683 0.897248 13.8552 -0.449641 11.2881 0.45497C9.73011 1.00386 8.62705 2.26103 8.19744 3.73141C6.94027 2.85636 5.29361 2.5703 3.73772 3.11919C1.17272 4.02486 -0.176283 6.84003 0.73044 9.40608C0.859218 9.76919 1.03022 10.1059 1.22866 10.4173C3.28805 14.1983 9.23822 16.8562 12.8408 16.8889C15.6243 14.6015 18.5894 8.79808 17.8209 4.56319C17.7808 4.19586 17.7017 3.82641 17.575 3.4633ZM20.425 3.4633C21.3317 0.897248 24.1458 -0.449641 26.7119 0.45497C28.2699 1.00386 29.3729 2.26103 29.8036 3.73141C31.0608 2.85636 32.7074 2.5703 34.2633 3.11919C36.8283 4.02486 38.1763 6.84003 37.2717 9.40608C37.1418 9.76919 36.9719 10.1059 36.7724 10.4173C34.713 14.1983 28.7628 16.8562 25.1592 16.8889C22.3757 14.6015 19.4117 8.79808 20.1801 4.56319C20.2192 4.19586 20.2983 3.82641 20.425 3.4633Z" fill="#D8E0E5"/>
</svg>
