<svg width="38" height="38" viewBox="0 0 38 38" fill="none" xmlns="http://www.w3.org/2000/svg">
<path d="M19 38C29.4934 38 38 29.4934 38 19C38 8.50659 29.4934 0 19 0C8.50659 0 0 8.50659 0 19C0 29.4934 8.50659 38 19 38Z" fill="#FFCD00"/>
<path d="M18.9999 22.1666C15.1756 22.1666 12.6381 21.7212 9.4999 21.1111C8.78318 20.9728 7.38879 21.1111 7.38879 23.2222C7.38879 27.4444 12.2391 32.7222 18.9999 32.7222C25.7597 32.7222 30.611 27.4444 30.611 23.2222C30.611 21.1111 29.2166 20.9718 28.4999 21.1111C25.3617 21.7212 22.8242 22.1666 18.9999 22.1666Z" fill="#333333"/>
<path d="M9.5 23.2222C9.5 23.2222 12.6667 24.2778 19 24.2778C25.3333 24.2778 28.5 23.2222 28.5 23.2222C28.5 23.2222 26.3889 27.4444 19 27.4444C11.6111 27.4444 9.5 23.2222 9.5 23.2222Z" fill="white"/>
<path d="M12.6667 17.9445C14.1241 17.9445 15.3056 16.2904 15.3056 14.25C15.3056 12.2096 14.1241 10.5556 12.6667 10.5556C11.2093 10.5556 10.0278 12.2096 10.0278 14.25C10.0278 16.2904 11.2093 17.9445 12.6667 17.9445Z" fill="#333333"/>
<path d="M25.3333 17.9445C26.7908 17.9445 27.9722 16.2904 27.9722 14.25C27.9722 12.2096 26.7908 10.5556 25.3333 10.5556C23.8759 10.5556 22.6945 12.2096 22.6945 14.25C22.6945 16.2904 23.8759 17.9445 25.3333 17.9445Z" fill="#333333"/>
</svg>
