<svg width="38" height="38" viewBox="0 0 38 38" fill="none" xmlns="http://www.w3.org/2000/svg">
<path d="M38 19C38 29.4933 29.4933 38 19 38C8.50672 38 0 29.4933 0 19C0 8.50672 8.50672 0 19 0C29.4933 0 38 8.50672 38 19Z" fill="#FFCD00"/>
<path d="M29.8849 16.4794C29.7002 16.3295 29.4352 16.3242 29.241 16.4646C29.2283 16.4741 27.9099 17.4167 25.3333 17.4167C22.7578 17.4167 21.4383 16.4741 21.4278 16.4667C21.2346 16.3221 20.9686 16.3263 20.7828 16.4762C20.5949 16.6261 20.5316 16.8836 20.6287 17.1032C20.692 17.2457 22.212 20.5834 25.3333 20.5834C28.4557 20.5834 29.9746 17.2457 30.0379 17.1032C30.135 16.8847 30.0717 16.6293 29.8849 16.4794ZM16.5743 16.4646C16.5617 16.4741 15.2443 17.4167 12.6667 17.4167C10.09 17.4167 8.77166 16.4741 8.7611 16.4667C8.56793 16.3221 8.30299 16.3263 8.11616 16.4762C7.92827 16.6261 7.86493 16.8836 7.96204 17.1032C8.02538 17.2457 9.54538 20.5834 12.6667 20.5834C15.789 20.5834 17.3079 17.2457 17.3713 17.1032C17.4684 16.8847 17.405 16.6293 17.2182 16.4794C17.0324 16.3284 16.7664 16.3242 16.5743 16.4646ZM30.6122 13.7223C30.2902 13.7223 29.9746 13.5766 29.7667 13.3C27.0307 9.65203 22.4189 10.526 22.3735 10.5345C21.7962 10.6485 21.2462 10.278 21.1312 9.70692C21.0172 9.13586 21.3877 8.57959 21.9587 8.46453C22.2025 8.41492 27.93 7.33298 31.4545 12.0323C31.8049 12.4989 31.7099 13.1607 31.2434 13.5101C31.0544 13.6536 30.8328 13.7223 30.6122 13.7223ZM7.38782 13.7223C7.16827 13.7223 6.94554 13.6536 6.75554 13.5111C6.28899 13.1618 6.19504 12.4999 6.54443 12.0334C10.0689 7.33192 15.7974 8.41703 16.0402 8.46559C16.6123 8.57959 16.9828 9.13586 16.8678 9.70797C16.7538 10.278 16.1985 10.6485 15.6285 10.5366C15.4322 10.4996 10.9461 9.6837 8.23332 13.3C8.02643 13.5766 7.70871 13.7223 7.38782 13.7223ZM24.5459 24.8869C24.3474 24.7697 24.0899 24.7961 23.9157 24.9502C23.9052 24.9586 22.8464 25.8611 19 25.8611C15.1567 25.8611 14.0959 24.9597 14.0959 24.9597C13.928 24.7908 13.6694 24.7591 13.4625 24.8731C13.2567 24.9903 13.1533 25.231 13.2113 25.4611C13.2219 25.5075 14.4189 30.0834 19 30.0834C23.5811 30.0834 24.7781 25.5075 24.7897 25.4611C24.8457 25.2363 24.7433 25.0061 24.5459 24.8869Z" fill="#333333"/>
</svg>
