<svg width="38" height="38" viewBox="0 0 38 38" fill="none" xmlns="http://www.w3.org/2000/svg">
<path d="M38 19C38 29.4933 29.4933 38 19 38C8.50778 38 0 29.4933 0 19C0 8.50778 8.50778 0 19 0C29.4933 0 38 8.50778 38 19Z" fill="#FFCD00"/>
<path d="M18.2738 18.5905C18.088 18.4395 17.823 18.4353 17.6299 18.5757C17.6172 18.5852 16.2999 19.5278 13.7222 19.5278C11.1456 19.5278 9.82722 18.5852 9.81666 18.5778C9.62349 18.4332 9.35749 18.4374 9.17172 18.5873C8.98383 18.7372 8.92049 18.9947 9.0176 19.2143C9.08094 19.3568 10.6009 22.6945 13.7222 22.6945C16.8445 22.6945 18.3635 19.3568 18.4268 19.2143C18.5239 18.9958 18.4606 18.7404 18.2738 18.5905ZM28.8293 18.5905C28.6435 18.4395 28.3797 18.4342 28.1854 18.5757C28.1728 18.5852 26.8544 19.5278 24.2778 19.5278C21.7022 19.5278 20.3828 18.5852 20.3722 18.5778C20.179 18.4332 19.9141 18.4374 19.7273 18.5873C19.5394 18.7372 19.476 18.9947 19.5732 19.2143C19.6365 19.3568 21.1565 22.6945 24.2778 22.6945C27.4001 22.6945 28.919 19.3568 28.9824 19.2143C29.0795 18.9958 29.0162 18.7404 28.8293 18.5905ZM23.2222 29.5556H14.7778C14.1951 29.5556 13.7222 29.0837 13.7222 28.5C13.7222 27.9163 14.1951 27.4445 14.7778 27.4445H23.2222C23.8059 27.4445 24.2778 27.9163 24.2778 28.5C24.2778 29.0837 23.8059 29.5556 23.2222 29.5556ZM6.33333 14.7778C5.75066 14.7778 5.27777 14.3049 5.27777 13.7223C5.27777 13.1406 5.74749 12.6688 6.3291 12.6667C6.49377 12.6646 10.0964 12.5759 12.8788 8.86669C13.2282 8.40225 13.889 8.30514 14.3566 8.65558C14.8232 9.00497 14.9171 9.66681 14.5677 10.1334C11.1234 14.725 6.52755 14.7778 6.33333 14.7778ZM31.6667 14.7778C31.4724 14.7778 26.8776 14.725 23.4333 10.1334C23.0829 9.66681 23.1779 9.00497 23.6444 8.65558C24.1099 8.30408 24.7707 8.40014 25.1212 8.86669C27.9089 12.5833 31.5189 12.6656 31.6719 12.6667C32.2525 12.673 32.7212 13.148 32.718 13.7275C32.7159 14.3091 32.2472 14.7778 31.6667 14.7778Z" fill="#333333"/>
</svg>
