<svg width="38" height="38" viewBox="0 0 38 38" fill="none" xmlns="http://www.w3.org/2000/svg">
<path d="M38 19C38 29.4933 29.4933 38 19 38C8.50672 38 0 29.4933 0 19C0 8.50672 8.50672 0 19 0C29.4933 0 38 8.50672 38 19Z" fill="#FFCD00"/>
<path d="M30.6111 10.5555C24.7485 10.5555 22.3756 5.94593 22.2775 5.74959C22.0167 5.22815 22.2279 4.59376 22.7493 4.33304C23.2697 4.07337 23.902 4.28237 24.1637 4.80065C24.2429 4.95476 26.0859 8.44443 30.6111 8.44443C31.1948 8.44443 31.6666 8.91732 31.6666 9.49998C31.6666 10.0826 31.1948 10.5555 30.6111 10.5555ZM7.38886 10.5555C6.80619 10.5555 6.3333 10.0826 6.3333 9.49998C6.3333 8.91732 6.80619 8.44443 7.38886 8.44443C12.7542 8.44443 13.718 5.15109 13.757 5.0107C13.9101 4.45337 14.4875 4.11559 15.0437 4.26231C15.6032 4.40904 15.942 4.9727 15.8016 5.53426C15.7499 5.73904 14.4653 10.5555 7.38886 10.5555ZM6.33436 24.2778C6.01347 24.2778 5.6968 24.1321 5.48886 23.8555C5.13841 23.39 5.23341 22.7282 5.69997 22.3788C5.85091 22.2659 8.81491 20.0745 12.9369 19.2829C10.3244 17.9729 7.42474 17.9444 7.3878 17.9444C6.80513 17.9434 6.3333 17.4694 6.33436 16.8868C6.33436 16.3051 6.80619 15.8333 7.38886 15.8333C7.62213 15.8333 13.1437 15.8734 16.5796 19.3093C16.8815 19.6111 16.9722 20.065 16.8086 20.4598C16.645 20.8546 16.2597 21.1111 15.8333 21.1111C10.964 21.1111 7.00569 24.0371 6.96663 24.0666C6.77663 24.2091 6.55391 24.2778 6.33436 24.2778ZM31.6656 24.2767C31.446 24.2767 31.2244 24.2092 31.0344 24.0677C30.9942 24.0371 27.0116 21.1111 22.1666 21.1111C21.7402 21.1111 21.3539 20.8546 21.1913 20.4598C21.0277 20.065 21.1185 19.6111 21.4204 19.3093C24.8572 15.8734 30.3778 15.8333 30.6111 15.8333C31.1937 15.8333 31.6645 16.3051 31.6656 16.8868C31.6666 17.4694 31.1948 17.9423 30.6132 17.9444C30.5752 17.9444 27.6756 17.9729 25.0631 19.2829C29.185 20.0745 32.149 22.2648 32.2989 22.3788C32.7644 22.7282 32.8594 23.3879 32.5111 23.8545C32.3042 24.13 31.9875 24.2767 31.6656 24.2767ZM26.8681 32.5016C26.7435 32.2303 23.7669 25.8611 19.2575 25.8611C14.7725 25.8611 11.2923 32.2018 11.1466 32.471C11.0274 32.6916 11.0801 32.966 11.2722 33.1265C11.3704 33.2088 11.4907 33.25 11.6111 33.25C11.7272 33.25 11.8433 33.212 11.9394 33.1349C11.9721 33.1096 15.2781 30.5182 19.2575 30.5182C23.2085 30.5182 26.0004 33.0832 26.0279 33.1085C26.2126 33.2795 26.4944 33.2985 26.6971 33.1508C26.9019 33.003 26.9736 32.7317 26.8681 32.5016Z" fill="#333333"/>
</svg>
