<svg width="38" height="38" viewBox="0 0 38 38" fill="none" xmlns="http://www.w3.org/2000/svg">
<path d="M19 38C29.4934 38 38 29.4934 38 19C38 8.50659 29.4934 0 19 0C8.50659 0 0 8.50659 0 19C0 29.4934 8.50659 38 19 38Z" fill="#FFCD00"/>
<path d="M19 30.6111C20.7489 30.6111 22.1666 29.1934 22.1666 27.4445C22.1666 25.6956 20.7489 24.2778 19 24.2778C17.2511 24.2778 15.8333 25.6956 15.8333 27.4445C15.8333 29.1934 17.2511 30.6111 19 30.6111Z" fill="#333333"/>
<path d="M18.2738 17.5349C18.088 17.3839 17.823 17.3797 17.6299 17.5201C17.6172 17.5296 16.2999 18.4722 13.7222 18.4722C11.1456 18.4722 9.82722 17.5296 9.81666 17.5222C9.62349 17.3776 9.35749 17.3818 9.17172 17.5317C8.98383 17.6816 8.92049 17.9392 9.01761 18.1587C9.08094 18.3012 10.6009 21.6389 13.7222 21.6389C16.8446 21.6389 18.3635 18.3012 18.4268 18.1587C18.5239 17.9402 18.4606 17.6848 18.2738 17.5349ZM28.8293 17.5349C28.6435 17.3839 28.3797 17.3787 28.1854 17.5201C28.1728 17.5296 26.8544 18.4722 24.2778 18.4722C21.7022 18.4722 20.3828 17.5296 20.3722 17.5222C20.179 17.3776 19.9141 17.3818 19.7273 17.5317C19.5394 17.6816 19.476 17.9392 19.5732 18.1587C19.6365 18.3012 21.1565 21.6389 24.2778 21.6389C27.4001 21.6389 28.9191 18.3012 28.9824 18.1587C29.0795 17.9402 29.0162 17.6848 28.8293 17.5349Z" fill="#333333"/>
<path d="M36.3428 13.2303C36.347 13.1839 36.3671 13.149 36.3671 13.1005C36.3671 12.3046 35.7886 11.8465 35.074 11.8465H31.293L35.8098 5.52054C36.0272 5.22182 36.1074 5.04238 36.1074 4.66449C36.1074 3.88865 35.4319 3.76832 35.1733 3.76832H29.5271L29.4933 3.0421C29.4933 3.0421 28.006 3.91927 27.9068 3.97943C27.8076 4.0396 27.3738 4.3721 27.3738 5.02127C27.3738 5.81715 27.9501 6.27421 28.6668 6.27421H31.9908L27.493 12.6002C27.3938 12.7595 27.2355 13.0572 27.2355 13.376C27.2355 14.0325 27.7717 14.3513 28.4082 14.3513H35.074C35.3464 14.3513 35.6176 14.2711 35.7929 14.1655L37.3794 13.2282H36.3428V13.2303Z" fill="#57B894"/>
<path d="M33.536 5.36647H30.2121C29.4954 5.36647 28.919 4.90942 28.919 4.11353C28.919 3.31764 29.4954 2.85953 30.2121 2.85953H36.7185C36.9771 2.85953 37.6527 2.97881 37.6527 3.75464C37.6527 4.13253 37.5725 4.31197 37.355 4.61069L32.8383 10.9366H36.6193C37.3339 10.9366 37.9124 11.3937 37.9124 12.1896C37.9124 12.9855 37.3339 13.4425 36.6193 13.4425H29.9535C29.317 13.4425 28.7808 13.1237 28.7808 12.4672C28.7808 12.1484 28.9391 11.8507 29.0383 11.6914L33.536 5.36647Z" fill="#E1E8ED"/>
<path d="M26.2686 7.89554C26.2717 7.8607 26.2876 7.83431 26.2876 7.79843C26.2876 7.20309 25.8548 6.86004 25.3196 6.86004H22.4886L25.8696 2.12376C26.0342 1.89998 26.0934 1.76592 26.0934 1.48409C26.0934 0.903536 25.5877 0.813814 25.3935 0.813814H21.1671L21.1417 0.270203C21.1417 0.270203 20.0281 0.926758 19.9542 0.972147C19.8804 1.01754 19.5552 1.26665 19.5552 1.7522C19.5552 2.34754 19.987 2.69059 20.5232 2.69059H23.0111L19.6439 7.42687C19.57 7.54615 19.4507 7.76887 19.4507 8.00742C19.4507 8.49931 19.8519 8.73681 20.329 8.73681H25.3196C25.5234 8.73681 25.726 8.67665 25.858 8.59748L27.0455 7.89554H26.2686Z" fill="#57B894"/>
<path d="M24.168 2.00869H21.68C21.1438 2.00869 20.7121 1.66669 20.7121 1.0703C20.7121 0.474968 21.1438 0.131912 21.68 0.131912H26.5514C26.7457 0.131912 27.2513 0.221634 27.2513 0.80219C27.2513 1.08508 27.1911 1.21913 27.0285 1.44291L23.6476 6.17919H26.4786C27.0117 6.17919 27.4444 6.52119 27.4444 7.11758C27.4444 7.71397 27.0117 8.05597 26.4765 8.05597H21.4858C21.0087 8.05597 20.6076 7.81741 20.6076 7.32658C20.6076 7.08802 20.7269 6.8653 20.8008 6.74602L24.168 2.00869Z" fill="#E1E8ED"/>
<path d="M18.7266 11.0042C18.7298 10.9746 18.7424 10.9524 18.7424 10.9208C18.7424 10.4109 18.3719 10.1175 17.9138 10.1175H15.4913L18.3857 6.06416C18.525 5.87311 18.5767 5.75805 18.5767 5.51633C18.5767 5.01916 18.1439 4.94211 17.9782 4.94211H14.3608L14.3387 4.47661L13.3222 5.07722C13.2588 5.11627 12.9802 5.32844 12.9802 5.74539C12.9802 6.25522 13.3496 6.54866 13.8088 6.54866H15.9378L13.0562 10.602C12.9928 10.7044 12.8904 10.8954 12.8904 11.0992C12.8904 11.5203 13.2346 11.7241 13.642 11.7241H17.9138C18.088 11.7241 18.2622 11.6723 18.3741 11.6048L19.3906 11.0042H18.7266Z" fill="#57B894"/>
<path d="M16.9279 5.96604H14.7989C14.3397 5.96604 13.9703 5.67259 13.9703 5.16276C13.9703 4.65293 14.3397 4.35948 14.7989 4.35948H18.9683C19.1341 4.35948 19.5668 4.43654 19.5668 4.9337C19.5668 5.17543 19.5162 5.29048 19.3758 5.48154L16.4814 9.53487H18.9039C19.3621 9.53487 19.7326 9.82831 19.7326 10.3381C19.7326 10.848 19.3621 11.1414 18.9039 11.1414H14.6321C14.2247 11.1414 13.8806 10.9377 13.8806 10.5165C13.8806 10.3128 13.9819 10.1218 14.0463 10.0194L16.9279 5.96604Z" fill="#E1E8ED"/>
</svg>
