<svg width="38" height="38" viewBox="0 0 38 38" fill="none" xmlns="http://www.w3.org/2000/svg">
<path d="M38 19C38 29.4933 29.4933 38 19 38C8.50778 38 0 29.4933 0 19C0 8.50778 8.50778 0 19 0C29.4933 0 38 8.50778 38 19Z" fill="#FFCD00"/>
<path d="M12.1389 21.1111C13.5963 21.1111 14.7778 19.457 14.7778 17.4166C14.7778 15.3763 13.5963 13.7222 12.1389 13.7222C10.6815 13.7222 9.5 15.3763 9.5 17.4166C9.5 19.457 10.6815 21.1111 12.1389 21.1111Z" fill="#333333"/>
<path d="M25.8611 21.1111C27.3185 21.1111 28.4999 19.457 28.4999 17.4166C28.4999 15.3763 27.3185 13.7222 25.8611 13.7222C24.4036 13.7222 23.2222 15.3763 23.2222 17.4166C23.2222 19.457 24.4036 21.1111 25.8611 21.1111Z" fill="#333333"/>
<path d="M12.6667 29.5556C14.7778 24.2778 26.3889 24.2778 26.3889 26.3889C26.3889 27.4445 17.9445 25.3334 12.6667 29.5556Z" fill="#333333"/>
</svg>
